<svg width="112" height="28" viewBox="0 0 112 28" fill="none" xmlns="http://www.w3.org/2000/svg">
<g clip-path="url(#clip0_1_919)">
<path d="M20.0091 6.68215L11.6504 3.13725C8.84043 1.94556 5.75595 3.0979 4.76103 5.7111L1.80147 13.4844C0.806547 16.0976 2.27793 19.1821 5.0879 20.3738L13.4466 23.9187C16.2566 25.1104 19.341 23.9581 20.336 21.3449L23.2955 13.5715C24.2904 10.9583 22.8191 7.87385 20.0091 6.68215Z" fill="#1863CC"/>
<path d="M15.5627 14.5161L14.2285 10.7217C14.1523 10.5048 13.8421 10.5191 13.7859 10.742L12.2282 16.9277L10.759 12.3539C10.6925 12.1469 10.4043 12.137 10.3238 12.339L9.45627 14.5161H7.29858C7.17076 14.5161 7.06714 14.6202 7.06714 14.7485C7.06714 14.8768 7.17076 14.9808 7.29858 14.9808H9.61296C9.7076 14.9808 9.7927 14.923 9.82785 14.8347L10.5153 13.1095L12.0349 17.84C12.1062 18.062 12.4226 18.0518 12.4796 17.8256L14.047 11.6013L15.1807 14.8258C15.2133 14.9187 15.3008 14.9808 15.3989 14.9808H17.1824C17.2715 15.1867 17.4757 15.3293 17.7133 15.3293C18.0351 15.3293 18.2919 15.0692 18.2919 14.7485C18.2919 14.4255 18.0329 14.1677 17.7133 14.1677C17.4744 14.1677 17.2713 14.311 17.1825 14.5161H15.5627Z" fill="#0B3F89"/>
<path fill-rule="evenodd" clip-rule="evenodd" d="M13.5416 10.6806C13.6586 10.2158 14.3071 10.1853 14.4663 10.6382L15.7413 14.2642H17.037C17.1871 14.0535 17.4331 13.9157 17.7134 13.9157C18.1724 13.9157 18.544 14.2866 18.544 14.7485C18.544 15.207 18.1759 15.5814 17.7134 15.5814C17.4344 15.5814 17.1875 15.4443 17.0369 15.2329H15.399C15.1934 15.2329 15.011 15.1028 14.943 14.9095L14.087 12.4748L12.724 17.8872C12.6053 18.3588 11.9439 18.3806 11.795 17.9171L10.4899 13.8543L10.062 14.9281C9.98884 15.1117 9.81128 15.2329 9.61302 15.2329H7.29863C7.03073 15.2329 6.81519 15.0151 6.81519 14.7485C6.81519 14.482 7.03073 14.2642 7.29863 14.2642H9.28547L10.0898 12.2457C10.2578 11.824 10.8603 11.8451 10.999 12.2769L12.1989 16.0124L13.5416 10.6806ZM17.3566 14.7486L17.4138 14.8808C17.4642 14.9973 17.5793 15.0773 17.7134 15.0773C17.8944 15.0773 18.0399 14.9317 18.0399 14.7485C18.0399 14.5644 17.8935 14.4197 17.7134 14.4197C17.5786 14.4197 17.4642 14.5 17.4139 14.6163L17.3566 14.7486Z" fill="white"/>
<path d="M36.7175 22.2405C35.0148 22.2405 33.5249 21.889 32.2479 21.1861C30.9709 20.4832 29.983 19.4767 29.2842 18.1667C28.5855 16.8567 28.2361 15.323 28.2361 13.5657C28.2361 11.8243 28.5855 10.2986 29.2842 8.9886C29.983 7.67858 30.9709 6.67211 32.2479 5.96918C33.5249 5.26624 35.0148 4.91477 36.7175 4.91477C38.7575 4.91477 40.5486 5.44996 42.0907 6.52034C42.3637 6.71205 42.5605 6.91973 42.681 7.1434C42.8015 7.36706 42.8617 7.65462 42.8617 8.00609C42.8617 8.50134 42.7212 8.9207 42.44 9.26418C42.1589 9.60766 41.8176 9.7794 41.416 9.7794C41.1751 9.7794 40.9582 9.74345 40.7654 9.67156C40.5727 9.59967 40.3478 9.48385 40.0908 9.32409C39.5286 8.9886 38.9985 8.74896 38.5005 8.60518C38.0026 8.4614 37.4885 8.38951 36.9584 8.38951C35.5288 8.38951 34.4646 8.81685 33.7659 9.67156C33.0671 10.5263 32.7177 11.8243 32.7177 13.5657C32.7177 15.323 33.0671 16.629 33.7659 17.4837C34.4646 18.3384 35.5288 18.7658 36.9584 18.7658C37.4403 18.7658 37.9062 18.6899 38.356 18.5381C38.8057 18.3864 39.384 18.1507 40.0908 17.8312C40.4281 17.6555 40.6771 17.5356 40.8377 17.4717C40.9984 17.4078 41.1911 17.3759 41.416 17.3759C41.8176 17.3759 42.1589 17.5476 42.44 17.8911C42.7212 18.2346 42.8617 18.6539 42.8617 19.1492C42.8617 19.4847 42.8015 19.7683 42.681 19.9999C42.5605 20.2316 42.3637 20.4432 42.0907 20.6349C40.5486 21.7053 38.7575 22.2405 36.7175 22.2405ZM52.1186 10.1C52.6603 10.0522 53.0905 10.1757 53.4092 10.4704C53.7278 10.7652 53.8872 11.1993 53.8872 11.7729C53.8872 12.4102 53.7398 12.8722 53.445 13.159C53.1503 13.4458 52.6205 13.629 51.8557 13.7087L51.1387 13.7804C50.342 13.876 49.7724 14.1269 49.4298 14.5332C49.0873 14.9395 48.916 15.4931 48.916 16.1942V20.2808C48.916 20.9341 48.7128 21.424 48.3065 21.7506C47.9002 22.0772 47.3943 22.2405 46.7889 22.2405C46.1834 22.2405 45.6775 22.0772 45.2712 21.7506C44.8649 21.424 44.6618 20.9341 44.6618 20.2808V12.0119C44.6618 11.4065 44.8649 10.9365 45.2712 10.6019C45.6775 10.2673 46.1675 10.1 46.7411 10.1C47.3306 10.1 47.8046 10.2593 48.1631 10.578C48.5216 10.8966 48.7009 11.3427 48.7009 11.9163V12.3704C48.9558 11.6693 49.3741 11.1276 49.9556 10.7453C50.5372 10.3629 51.1466 10.1558 51.784 10.1239L52.1186 10.1ZM57.1498 22.2405C56.5414 22.2405 56.033 22.0771 55.6247 21.7502C55.2164 21.4233 55.0122 20.933 55.0122 20.2792V12.0513C55.0122 11.3975 55.2164 10.9072 55.6247 10.5803C56.033 10.2534 56.5414 10.09 57.1498 10.09C57.7583 10.09 58.2666 10.2534 58.6749 10.5803C59.0833 10.9072 59.2874 11.3975 59.2874 12.0513V20.2792C59.2874 20.933 59.0833 21.4233 58.6749 21.7502C58.2666 22.0771 57.7583 22.2405 57.1498 22.2405ZM57.1498 8.28992C56.4266 8.28992 55.852 8.10439 55.4261 7.73332C55.0002 7.36225 54.7872 6.86881 54.7872 6.25299C54.7872 5.63717 55.0002 5.14768 55.4261 4.78451C55.852 4.42133 56.4266 4.23975 57.1498 4.23975C57.857 4.23975 58.4275 4.42133 58.8615 4.78451C59.2954 5.14768 59.5124 5.63717 59.5124 6.25299C59.5124 6.86881 59.2995 7.36225 58.8735 7.73332C58.4476 8.10439 57.8731 8.28992 57.1498 8.28992ZM69.5976 10.0461C70.6231 10.0461 71.5284 10.2922 72.3135 10.7845C73.0986 11.2767 73.7115 11.9793 74.1521 12.8923C74.5927 13.8053 74.8131 14.8651 74.8131 16.0719C74.8131 17.2786 74.5927 18.3504 74.1521 19.2872C73.7115 20.224 73.0946 20.9504 72.3015 21.4665C71.5084 21.9825 70.6071 22.2405 69.5976 22.2405C68.8125 22.2405 68.0955 22.0817 67.4466 21.7642C66.7977 21.4466 66.305 21.01 65.9685 20.4542C65.9204 20.9941 65.7081 21.4188 65.3316 21.7284C64.955 22.0381 64.4623 22.1929 63.8535 22.1929C63.2126 22.1929 62.7038 22.0142 62.3273 21.657C61.9508 21.2997 61.7625 20.8274 61.7625 20.2399V7.04516C61.7625 6.48942 61.9628 6.03293 62.3634 5.67567C62.7639 5.31841 63.2927 5.13978 63.9496 5.13978C64.5745 5.13978 65.0792 5.3065 65.4638 5.63994C65.8483 5.97339 66.0406 6.41797 66.0406 6.97371V11.7133C66.3931 11.2052 66.8858 10.8003 67.5187 10.4986C68.1516 10.197 68.8446 10.0461 69.5976 10.0461ZM68.2878 19.0904C69.0066 19.0904 69.5613 18.8327 69.9519 18.3175C70.3426 17.8022 70.5379 17.061 70.5379 16.0939C70.5379 15.1744 70.3465 14.4688 69.9636 13.9774C69.5808 13.4859 69.03 13.2401 68.3112 13.2401C67.5768 13.2401 67.0143 13.4898 66.6236 13.9892C66.233 14.4887 66.0377 15.2061 66.0377 16.1415C66.0377 17.0927 66.233 17.822 66.6236 18.3294C67.0143 18.8367 67.569 19.0904 68.2878 19.0904Z" fill="#272727"/>
<path d="M91.7857 4.91479C92.42 4.91479 92.9374 5.1243 93.338 5.54331C93.7385 5.96233 93.9388 6.50704 93.9388 7.17746V20.854C93.9388 21.4909 93.7552 21.9937 93.388 22.3625C93.0208 22.7312 92.5368 22.9156 91.9359 22.9156C91.3518 22.9156 90.8719 22.7312 90.4964 22.3625C90.1208 21.9937 89.933 21.4909 89.933 20.854V13.4626L87.0789 18.7422C86.7952 19.2785 86.4947 19.6598 86.1776 19.8861C85.8605 20.1124 85.4849 20.2255 85.051 20.2255C84.617 20.2255 84.2415 20.1124 83.9243 19.8861C83.6072 19.6598 83.3068 19.2785 83.023 18.7422L80.1939 13.6135V20.854C80.1939 21.4742 80.0062 21.9728 79.6306 22.3499C79.2551 22.727 78.7669 22.9156 78.166 22.9156C77.5818 22.9156 77.1019 22.7312 76.7264 22.3625C76.3509 21.9937 76.1631 21.4909 76.1631 20.854V7.17746C76.1631 6.50704 76.3675 5.96233 76.7765 5.54331C77.1854 5.1243 77.707 4.91479 78.3412 4.91479C78.7919 4.91479 79.2008 5.04469 79.568 5.30448C79.9352 5.56427 80.244 5.93718 80.4944 6.42324L85.101 15.1219L89.6827 6.42324C90.2001 5.4176 90.9011 4.91479 91.7857 4.91479ZM97.1986 22.6905C96.5121 22.6905 95.9847 22.5056 95.6164 22.1358C95.2481 21.766 95.0639 21.2366 95.0639 20.5474V7.05797C95.0639 6.36879 95.2481 5.8393 95.6164 5.4695C95.9847 5.09969 96.5121 4.91479 97.1986 4.91479H102.272C104.231 4.91479 105.917 5.27199 107.332 5.98638C108.747 6.70078 109.831 7.72193 110.584 9.04986C111.338 10.3778 111.715 11.9579 111.715 13.7901C111.715 15.6391 111.342 17.2317 110.597 18.5681C109.852 19.9044 108.772 20.9256 107.357 21.6316C105.943 22.3376 104.247 22.6905 102.272 22.6905H97.1986ZM101.822 19.0904C103.544 19.0904 104.836 18.6644 105.697 17.8124C106.559 16.9604 106.989 15.6571 106.989 13.9025C106.989 12.1479 106.559 10.8489 105.697 10.0053C104.836 9.16173 103.544 8.73996 101.822 8.73996H99.5641V19.0904H101.822Z" fill="#1863CC"/>
</g>
<defs>
<clipPath id="clip0_1_919">
<rect width="112" height="28" fill="white"/>
</clipPath>
</defs>
</svg>
