<svg width="116" height="28" viewBox="0 0 116 28" fill="none" xmlns="http://www.w3.org/2000/svg">
<path d="M20.8756 5.33106L12.6734 2.01716C9.91607 0.903112 6.77767 2.23528 5.66363 4.99264L2.34973 13.1948C1.23568 15.9522 2.56785 19.0906 5.32521 20.2046L13.5274 23.5185C16.2848 24.6326 19.4232 23.3004 20.5372 20.5431L23.8511 12.3409C24.9652 9.5835 23.633 6.4451 20.8756 5.33106Z" fill="#1863CC"/>
<path fill-rule="evenodd" clip-rule="evenodd" d="M14.1108 9.87082C14.2299 9.39788 14.8897 9.36687 15.0517 9.82764L16.3489 13.5171H17.6674C17.82 13.3027 18.0704 13.1625 18.3555 13.1625C18.8226 13.1625 19.2007 13.5399 19.2007 14.0099C19.2007 14.4763 18.8261 14.8573 18.3555 14.8573C18.0717 14.8573 17.8205 14.7178 17.6673 14.5027H16.0007C15.7915 14.5027 15.6059 14.3703 15.5367 14.1736L14.6657 11.6964L13.279 17.2034C13.1581 17.6832 12.4852 17.7054 12.3337 17.2338L11.0058 13.1L10.5704 14.1926C10.496 14.3794 10.3153 14.5027 10.1136 14.5027H7.75875C7.48616 14.5027 7.26685 14.2811 7.26685 14.0099C7.26685 13.7386 7.48616 13.5171 7.75875 13.5171H9.78031L10.5987 11.4633C10.7697 11.0342 11.3826 11.0557 11.5238 11.4951L12.7447 15.2958L14.1108 9.87082ZM17.9925 14.01L18.0507 14.1445C18.102 14.263 18.2191 14.3444 18.3555 14.3444C18.5398 14.3444 18.6878 14.1962 18.6878 14.0099C18.6878 13.8226 18.5388 13.6753 18.3555 13.6753C18.2184 13.6753 18.102 13.757 18.0508 13.8753L17.9925 14.01Z" fill="white"/>
<path d="M37.6921 21.6323C35.9596 21.6323 34.4437 21.2747 33.1443 20.5594C31.845 19.8442 30.8398 18.8202 30.1288 17.4872C29.4179 16.1543 29.0624 14.5938 29.0624 12.8058C29.0624 11.034 29.4179 9.48162 30.1288 8.1487C30.8398 6.81578 31.845 5.79172 33.1443 5.0765C34.4437 4.36127 35.9596 4.00366 37.6921 4.00366C39.7678 4.00366 41.5901 4.5482 43.1592 5.63729C43.437 5.83236 43.6372 6.04367 43.7598 6.27124C43.8824 6.49881 43.9437 6.7914 43.9437 7.14901C43.9437 7.65292 43.8007 8.07961 43.5146 8.4291C43.2286 8.77859 42.8813 8.95333 42.4727 8.95333C42.2275 8.95333 42.0069 8.91675 41.8108 8.8436C41.6146 8.77046 41.3858 8.65261 41.1243 8.49006C40.5523 8.1487 40.0129 7.90488 39.5062 7.75858C38.9996 7.61228 38.4766 7.53914 37.9372 7.53914C36.4826 7.53914 35.3998 7.97395 34.6888 8.8436C33.9779 9.71325 33.6224 11.034 33.6224 12.8058C33.6224 14.5938 33.9779 15.9227 34.6888 16.7923C35.3998 17.662 36.4826 18.0968 37.9372 18.0968C38.4275 18.0968 38.9015 18.0196 39.3592 17.8652C39.8168 17.7107 40.4052 17.471 41.1243 17.1459C41.4675 16.9671 41.7209 16.8452 41.8843 16.7801C42.0478 16.7151 42.2439 16.6826 42.4727 16.6826C42.8813 16.6826 43.2286 16.8573 43.5146 17.2068C43.8007 17.5563 43.9437 17.983 43.9437 18.4869C43.9437 18.8283 43.8824 19.1168 43.7598 19.3525C43.6372 19.5882 43.437 19.8036 43.1592 19.9986C41.5901 21.0877 39.7678 21.6323 37.6921 21.6323ZM53.3624 9.27953C53.9136 9.2309 54.3513 9.35653 54.6755 9.65643C54.9998 9.95634 55.1619 10.3981 55.1619 10.9817C55.1619 11.6301 55.0119 12.1002 54.712 12.392C54.4121 12.6838 53.873 12.8703 53.0949 12.9513L52.3653 13.0243C51.5547 13.1215 50.9752 13.3768 50.6266 13.7902C50.278 14.2036 50.1038 14.7669 50.1038 15.4802V19.6383C50.1038 20.303 49.8971 20.8015 49.4837 21.1338C49.0703 21.4661 48.5555 21.6323 47.9395 21.6323C47.3234 21.6323 46.8087 21.4661 46.3953 21.1338C45.9819 20.8015 45.7752 20.303 45.7752 19.6383V11.2248C45.7752 10.6088 45.9819 10.1306 46.3953 9.79017C46.8087 9.44974 47.3072 9.27953 47.8909 9.27953C48.4907 9.27953 48.973 9.44164 49.3378 9.76586C49.7025 10.0901 49.8849 10.544 49.8849 11.1276V11.5896C50.1443 10.8763 50.5699 10.3251 51.1616 9.93607C51.7533 9.54701 52.3734 9.33627 53.0219 9.30385L53.3624 9.27953ZM58.4815 21.6323C57.8624 21.6323 57.3452 21.466 56.9297 21.1334C56.5143 20.8008 56.3066 20.3019 56.3066 19.6367V11.2649C56.3066 10.5997 56.5143 10.1008 56.9297 9.76825C57.3452 9.43565 57.8624 9.26935 58.4815 9.26935C59.1006 9.26935 59.6179 9.43565 60.0333 9.76825C60.4488 10.1008 60.6565 10.5997 60.6565 11.2649V19.6367C60.6565 20.3019 60.4488 20.8008 60.0333 21.1334C59.6179 21.466 59.1006 21.6323 58.4815 21.6323ZM71.147 9.22471C72.1904 9.22471 73.1115 9.47512 73.9103 9.97595C74.7092 10.4768 75.3327 11.1917 75.7811 12.1206C76.2294 13.0496 76.4536 14.128 76.4536 15.3558C76.4536 16.5836 76.2294 17.6741 75.7811 18.6273C75.3327 19.5805 74.7051 20.3196 73.8981 20.8447C73.0911 21.3697 72.1741 21.6323 71.147 21.6323C70.3481 21.6323 69.6186 21.4707 68.9583 21.1476C68.298 20.8245 67.7967 20.3802 67.4544 19.8148C67.4055 20.364 67.1895 20.7962 66.8063 21.1112C66.4232 21.4263 65.9219 21.5838 65.3024 21.5838C64.6503 21.5838 64.1327 21.4021 63.7495 21.0385C63.3664 20.675 63.1749 20.1944 63.1749 19.5967V6.17129C63.1749 5.60583 63.3787 5.14136 63.7862 4.77786C64.1938 4.41435 64.7318 4.23261 65.4002 4.23261C66.036 4.23261 66.5496 4.40224 66.9408 4.74151C67.3321 5.08078 67.5277 5.53313 67.5277 6.09859V10.9211C67.8864 10.4041 68.3877 9.9921 69.0317 9.68515C69.6756 9.37819 70.3807 9.22471 71.147 9.22471ZM69.8142 18.4271C70.5456 18.4271 71.11 18.1649 71.5074 17.6407C71.9049 17.1164 72.1036 16.3622 72.1036 15.3782C72.1036 14.4426 71.9089 13.7247 71.5194 13.2247C71.1298 12.7246 70.5694 12.4746 69.8381 12.4746C69.0908 12.4746 68.5185 12.7286 68.121 13.2368C67.7235 13.7449 67.5248 14.4748 67.5248 15.4266C67.5248 16.3945 67.7235 17.1365 68.121 17.6528C68.5185 18.169 69.0829 18.4271 69.8142 18.4271Z" fill="#272727"/>
<path d="M93.7228 4.00366C94.3681 4.00366 94.8946 4.21683 95.3021 4.64317C95.7097 5.06951 95.9135 5.62374 95.9135 6.30588V20.2215C95.9135 20.8696 95.7267 21.3812 95.3531 21.7563C94.9795 22.1315 94.487 22.3191 93.8756 22.3191C93.2812 22.3191 92.793 22.1315 92.4109 21.7563C92.0287 21.3812 91.8377 20.8696 91.8377 20.2215V12.7009L88.9337 18.0728C88.645 18.6185 88.3393 19.0065 88.0166 19.2367C87.6939 19.4669 87.3118 19.582 86.8703 19.582C86.4287 19.582 86.0466 19.4669 85.7239 19.2367C85.4013 19.0065 85.0956 18.6185 84.8069 18.0728L81.9283 12.8544V20.2215C81.9283 20.8525 81.7373 21.3598 81.3552 21.7435C80.9731 22.1272 80.4763 22.3191 79.8649 22.3191C79.2705 22.3191 78.7823 22.1315 78.4002 21.7563C78.0181 21.3812 77.827 20.8696 77.827 20.2215V6.30588C77.827 5.62374 78.0351 5.06951 78.4511 4.64317C78.8672 4.21683 79.3979 4.00366 80.0433 4.00366C80.5018 4.00366 80.9179 4.13583 81.2915 4.40016C81.6651 4.66449 81.9793 5.04392 82.234 5.53847L86.9212 14.3892L91.5829 5.53847C92.1094 4.51526 92.8227 4.00366 93.7228 4.00366ZM99.2303 22.0902C98.5318 22.0902 97.9952 21.902 97.6204 21.5258C97.2456 21.1495 97.0582 20.6107 97.0582 19.9095V6.1843C97.0582 5.48307 97.2456 4.94433 97.6204 4.56806C97.9952 4.19179 98.5318 4.00366 99.2303 4.00366H104.392C106.385 4.00366 108.101 4.3671 109.541 5.09398C110.98 5.82087 112.084 6.85987 112.85 8.21102C113.617 9.56216 114 11.1698 114 13.0341C114 14.9154 113.621 16.5359 112.863 17.8956C112.105 19.2553 111.006 20.2943 109.567 21.0127C108.127 21.731 106.402 22.0902 104.392 22.0902H99.2303ZM103.934 18.4271C105.687 18.4271 107.001 17.9936 107.878 17.1267C108.754 16.2598 109.192 14.9338 109.192 13.1485C109.192 11.3632 108.754 10.0415 107.878 9.18315C107.001 8.32484 105.687 7.89569 103.934 7.89569H101.637V18.4271H103.934Z" fill="#1863CC"/>
<path d="M56.9324 7.73628C57.3068 8.11682 57.8119 8.30709 58.4476 8.30709C59.0834 8.30709 59.5884 8.11682 59.9628 7.73628C60.3372 7.35574 60.5244 6.84972 60.5244 6.21818C60.5244 5.58665 60.3337 5.08467 59.9522 4.71223C59.5708 4.33978 59.0692 4.15356 58.4476 4.15356C57.8119 4.15356 57.3068 4.33978 56.9324 4.71223C56.558 5.08467 56.3708 5.58665 56.3708 6.21818C56.3708 6.84972 56.558 7.35574 56.9324 7.73628Z" fill="#272727"/>
</svg>
